<?xml version="1.0" encoding="UTF-8"?><!DOCTYPE svg PUBLIC "-//W3C//DTD SVG 1.1//EN" "http://www.w3.org/Graphics/SVG/1.1/DTD/svg11.dtd"><svg xmlns="http://www.w3.org/2000/svg"><symbol id="icon-arrow-long" viewBox="0 0 335.64 23.16">
    <path class="bcls-1" d="M321.94 2.12l7.96 7.96H0v3h329.9l-7.96 7.96 2.12 2.12 11.58-11.58L324.06 0z"/>
</symbol><symbol id="icon-arrow-right" viewBox="0 0 67.64 23.16">
    <path class="acls-1" d="M53.94 2.12l7.96 7.96H0v3h61.9l-7.96 7.96 2.12 2.12 11.58-11.58L56.06 0z"/>
</symbol><symbol id="icon-close" viewBox="0 0 14 14">
    <path d="M14 1.4L12.6 0 7 5.6 1.4 0 0 1.4 5.6 7 0 12.6 1.4 14 7 8.4l5.6 5.6 1.4-1.4L8.4 7 14 1.4z"/>
</symbol><symbol id="icon-email" viewBox="0 0 512 512">
    <path d="M467 61H45C20.218 61 0 81.196 0 106v300c0 24.72 20.128 45 45 45h422c24.72 0 45-20.128 45-45V106c0-24.72-20.128-45-45-45zm-6.214 30L256.954 294.833 51.359 91h409.427zM30 399.788V112.069l144.479 143.24L30 399.788zM51.213 421l144.57-144.57 50.657 50.222c5.864 5.814 15.327 5.795 21.167-.046L317 277.213 460.787 421H51.213zM482 399.787L338.213 256 482 112.212v287.575z"/>
</symbol><symbol id="icon-facebook" viewBox="0 0 10 19">
    <title>
        facebook
    </title>
    <path d="M9.766.157v2.946H8.014c-.64 0-1.071.134-1.295.402-.223.268-.335.67-.335 1.205v2.11h3.27l-.435 3.303H6.384v8.471H2.97v-8.47H.123V6.82H2.97V4.387c0-1.384.387-2.457 1.161-3.22C4.904.404 5.934.023 7.222.023c1.093 0 1.941.045 2.544.134z" fill-rule="evenodd"/>
</symbol><symbol id="icon-phone" viewBox="0 0 348.077 348.077">
    <path d="M340.273 275.083l-53.755-53.761c-10.707-10.664-28.438-10.34-39.518.744l-27.082 27.076a792.327 792.327 0 0 1-5.344-2.973c-17.102-9.476-40.509-22.464-65.14-47.113-24.704-24.701-37.704-48.144-47.209-65.257-1.003-1.813-1.964-3.561-2.913-5.221l18.176-18.149 8.936-8.947c11.097-11.1 11.403-28.826.721-39.521L73.39 8.194c-10.682-10.68-28.421-10.356-39.518.744l-15.15 15.237.414.411c-5.08 6.482-9.325 13.958-12.484 22.02C3.74 54.28 1.927 61.603 1.098 68.941-6 127.785 20.89 181.564 93.866 254.541c100.875 100.868 182.167 93.248 185.674 92.876 7.638-.913 14.958-2.738 22.397-5.627 7.992-3.122 15.463-7.361 21.941-12.43l.331.294 15.348-15.029c11.074-11.098 11.393-28.83.716-39.542z"/>
</symbol><symbol id="icon-telegram-logo" viewBox="0 0 189.473 189.473">
    <path d="M152.531 179.476c-1.48 0-2.95-.438-4.211-1.293l-47.641-32.316-25.552 18.386a7.502 7.502 0 0 1-11.633-4.174l-12.83-48.622L4.821 93.928a7.501 7.501 0 0 1-.094-13.975l174.312-69.36a7.503 7.503 0 0 1 10.282 8.408L159.898 173.38a7.499 7.499 0 0 1-7.367 6.096zm-47.669-48.897l42.437 28.785L170.193 39.24l-82.687 79.566 17.156 11.638c.069.043.135.089.2.135zm-35.327-6.401l5.682 21.53 12.242-8.809-16.03-10.874a7.478 7.478 0 0 1-1.894-1.847zM28.136 86.782l31.478 12.035a7.5 7.5 0 0 1 4.573 5.092l3.992 15.129a7.504 7.504 0 0 1 2.259-4.624L149.227 38.6 28.136 86.782z"/>
</symbol></svg>