<?xml version="1.0" encoding="UTF-8"?><!DOCTYPE svg PUBLIC "-//W3C//DTD SVG 1.1//EN" "http://www.w3.org/Graphics/SVG/1.1/DTD/svg11.dtd"><svg xmlns="http://www.w3.org/2000/svg"><symbol id="icon-arrow-long" viewBox="0 0 335.64 23.16">
    <path class="bcls-1" d="M321.94 2.12l7.96 7.96H0v3h329.9l-7.96 7.96 2.12 2.12 11.58-11.58L324.06 0z"/>
</symbol><symbol id="icon-arrow-right" viewBox="0 0 67.64 23.16">
    <path class="acls-1" d="M53.94 2.12l7.96 7.96H0v3h61.9l-7.96 7.96 2.12 2.12 11.58-11.58L56.06 0z"/>
</symbol><symbol id="icon-facebook" viewBox="0 0 10 19">
    <title>
        facebook
    </title>
    <path d="M9.766.157v2.946H8.014c-.64 0-1.071.134-1.295.402-.223.268-.335.67-.335 1.205v2.11h3.27l-.435 3.303H6.384v8.471H2.97v-8.47H.123V6.82H2.97V4.387c0-1.384.387-2.457 1.161-3.22C4.904.404 5.934.023 7.222.023c1.093 0 1.941.045 2.544.134z" fill-rule="evenodd"/>
</symbol></svg>